<svg xmlns="http://www.w3.org/2000/svg" width="48" height="48" viewBox="0 0 64 64">
  <!-- Pin -->
  <path
    fill="#1E7A1E"
    d="M32 2C20.4 2 11 11.4 11 23c0 15.4 21 39 21 39s21-23.6 21-39C53 11.4 43.6 2 32 2z"
  />

  <!-- White circle -->
  <circle cx="32" cy="24" r="14" fill="#FFFFFF"/>

  <!-- Eye -->
  <path
    d="M20 24C23.5 19.5 28 17 32 17C36 17 40.5 19.5 44 24C40.5 28.5 36 31 32 31C28 31 23.5 28.5 20 24Z"
    fill="#1E7A1E"
  />

  <!-- Iris -->
  <circle cx="32" cy="24" r="3.4" fill="#FFFFFF"/>

  <!-- Pupil -->
  <circle cx="32" cy="24" r="1.7" fill="#1E7A1E"/>
</svg>